<svg width="153" height="129" viewBox="0 0 153 129" fill="none" xmlns="http://www.w3.org/2000/svg">
<path fill-rule="evenodd" clip-rule="evenodd" d="M66.9375 26.875C65.2467 26.875 63.6252 27.4413 62.4297 28.4493C61.2341 29.4573 60.5625 30.8245 60.5625 32.25H51C49.3092 32.25 47.6877 32.8163 46.4922 33.8243C45.2967 34.8323 44.625 36.1995 44.625 37.625V96.75C44.625 98.1755 45.2967 99.5427 46.4922 100.551C47.6877 101.559 49.3092 102.125 51 102.125H102C103.691 102.125 105.312 101.559 106.508 100.551C107.703 99.5427 108.375 98.1755 108.375 96.75V37.625C108.375 36.1995 107.703 34.8323 106.508 33.8243C105.312 32.8163 103.691 32.25 102 32.25H92.4375C92.4375 30.8245 91.7658 29.4573 90.5703 28.4493C89.3748 27.4413 87.7533 26.875 86.0625 26.875H66.9375ZM66.9375 32.25H86.0625V37.625H66.9375V32.25ZM78.2754 75.25L70.329 93.1192C70.169 93.4518 70.0897 93.808 70.0956 94.1669C70.1016 94.5258 70.1928 94.8801 70.3638 95.2088C70.5348 95.5375 70.7822 95.8339 71.0913 96.0807C71.4004 96.3275 71.765 96.5196 72.1636 96.6456C72.5622 96.7716 72.9867 96.829 73.4121 96.8145C73.8374 96.7999 74.255 96.7137 74.6402 96.5609C75.0254 96.408 75.3703 96.1917 75.6547 95.9246C75.9391 95.6575 76.1571 95.3451 76.296 95.0058L80.3091 85.9892H88.6284L92.6415 95.0058C92.7803 95.3451 92.9984 95.6575 93.2828 95.9246C93.5672 96.1917 93.9121 96.408 94.2973 96.5609C94.6825 96.7137 95.1001 96.7999 95.5254 96.8145C95.9508 96.829 96.3753 96.7716 96.7739 96.6456C97.1725 96.5196 97.5371 96.3275 97.8462 96.0807C98.1553 95.8339 98.4027 95.5375 98.5737 95.2088C98.7447 94.8801 98.8359 94.5258 98.8419 94.1669C98.8478 93.808 98.7685 93.4518 98.6085 93.1192L90.6652 75.25H99.7751C100.62 75.25 101.431 74.9668 102.029 74.4628C102.627 73.9588 102.963 73.2753 102.963 72.5625C102.963 71.8497 102.627 71.1661 102.029 70.6621C101.431 70.1581 100.62 69.875 99.7751 69.875H66.9439C66.0985 69.875 65.2877 70.1581 64.69 70.6621C64.0922 71.1661 63.7564 71.8497 63.7564 72.5625C63.7564 73.2753 64.0922 73.9588 64.69 74.4628C65.2877 74.9668 66.0985 75.25 66.9439 75.25H78.2786H78.2754ZM98.8125 51.7075H54.1875V46.3325H98.8125V51.7075ZM54.1875 62.8875H70.125V57.5125H54.1875V62.8875ZM90.8437 61.8125C90.8437 63.238 90.1721 64.6052 88.9766 65.6132C87.781 66.6212 86.1595 67.1875 84.4687 67.1875C82.778 67.1875 81.1565 66.6212 79.9609 65.6132C78.7654 64.6052 78.0937 63.238 78.0937 61.8125C78.0937 60.387 78.7654 59.0198 79.9609 58.0118C81.1565 57.0038 82.778 56.4375 84.4687 56.4375C86.1595 56.4375 87.781 57.0038 88.9766 58.0118C90.1721 59.0198 90.8437 60.387 90.8437 61.8125Z" fill="#85B6FF"/>
<path fill-rule="evenodd" clip-rule="evenodd" d="M124.312 21.5H28.6875C27.8421 21.5 27.0314 21.7831 26.4336 22.2872C25.8358 22.7912 25.5 23.4747 25.5 24.1875V104.812C25.5 105.525 25.8358 106.209 26.4336 106.713C27.0314 107.217 27.8421 107.5 28.6875 107.5H124.312C125.158 107.5 125.969 107.217 126.566 106.713C127.164 106.209 127.5 105.525 127.5 104.812V24.1875C127.5 23.4747 127.164 22.7912 126.566 22.2872C125.969 21.7831 125.158 21.5 124.312 21.5ZM28.6875 16.125C26.1514 16.125 23.7191 16.9744 21.9258 18.4865C20.1325 19.9985 19.125 22.0492 19.125 24.1875V104.812C19.125 106.951 20.1325 109.002 21.9258 110.514C23.7191 112.026 26.1514 112.875 28.6875 112.875H124.312C126.849 112.875 129.281 112.026 131.074 110.514C132.868 109.002 133.875 106.951 133.875 104.812V24.1875C133.875 22.0492 132.868 19.9985 131.074 18.4865C129.281 16.9744 126.849 16.125 124.312 16.125H28.6875Z" fill="#85B6FF"/>
</svg>
