<svg width="50" height="58" viewBox="0 0 50 58" fill="none" xmlns="http://www.w3.org/2000/svg">
<path d="M39.2857 14.5C39.2857 22.509 32.8906 29 24.8996 29C17.1094 29 10.6138 22.509 10.6138 14.5C10.6138 6.49215 17.1094 0 24.8996 0C32.8906 0 39.2857 6.49215 39.2857 14.5ZM32.0424 41.0078C29.0625 41.8121 26.6853 44.6555 26.6853 48.0312V50.75C26.6853 51.2258 26.9754 51.6902 27.3103 52.0301L29.096 53.8426C29.7879 54.5562 30.9263 54.5562 31.6183 53.8426C32.3214 53.1402 32.3214 51.9848 31.6183 51.2824L30.2567 50.0023V48.0312C30.2567 46.0262 31.9531 44.4062 33.8281 44.4062C35.904 44.4062 37.5 46.0262 37.5 48.0312V50.0023L36.2388 51.2824C35.5357 51.9848 35.5357 53.1402 36.2388 53.8426C36.9308 54.5562 38.0692 54.5562 38.7612 53.8426L40.5469 52.0301C40.8817 51.6902 41.0714 51.2258 41.0714 50.75V48.0312C41.0714 44.6555 38.7946 41.8121 35.7143 41.0078V34.9812C43.9174 37.009 50 44.4176 50 53.4688V54.375C50 56.3801 48.404 58 46.4286 58H3.57143C1.59933 58 0 56.3801 0 54.375V53.4688C0 44.5195 6.08594 37.009 14.2857 34.9812V41.948C11.7076 42.7297 9.82143 45.1539 9.82143 48.0312C9.82143 51.5316 12.6228 54.375 16.0714 54.375C19.5201 54.375 22.3214 51.5316 22.3214 48.0312C22.3214 45.1539 20.4353 42.7297 17.8571 41.948V34.4602C18.1585 34.4488 18.4487 34.4375 18.75 34.4375H31.25C31.5513 34.4375 31.8415 34.4488 32.1429 34.4602L32.0424 41.0078V41.0078ZM18.6496 48.0312C18.6496 49.5379 17.5558 50.75 15.971 50.75C14.5871 50.75 13.2924 49.5379 13.2924 48.0312C13.2924 46.5246 14.5871 45.3125 15.971 45.3125C17.5558 45.3125 18.6496 46.5246 18.6496 48.0312Z" fill="#ABC4EA"/>
</svg>
